<svg xmlns="http://www.w3.org/2000/svg" width="1500" height="2000" viewBox="0 0 1500 2000">
  <defs><clipPath id="scene"><rect x="100" y="100" width="1300" height="1330"/></clipPath></defs>
  <rect x="0" y="0" width="1500" height="2000" rx="28" fill="#f4e7c9"/>
  <rect x="34" y="34" width="1432" height="1932" rx="14" fill="none" stroke="#3b1d2e" stroke-width="14"/>
  <g clip-path="url(#scene)"><rect x="100" y="100" width="1300" height="134" fill="#3b1d2e"/><rect x="100" y="233" width="1300" height="134" fill="#8c2f39"/><rect x="100" y="366" width="1300" height="134" fill="#c94a3a"/><rect x="100" y="499" width="1300" height="134" fill="#e9843c"/><rect x="100" y="632" width="1300" height="134" fill="#f2b04e"/><rect x="100" y="765" width="1300" height="134" fill="#f8d98a"/><circle cx="750" cy="610" r="250" fill="#fff0c0" /><circle cx="750" cy="610" r="190" fill="none" stroke="#f2b04e" stroke-width="12" opacity="0.7"/><circle cx="750" cy="610" r="130" fill="none" stroke="#f2b04e" stroke-width="12" opacity="0.7"/><circle cx="750" cy="610" r="70" fill="none" stroke="#f2b04e" stroke-width="12" opacity="0.7"/><circle cx="750" cy="610" r="30" fill="#e9843c" /><polygon points="100,840 400,800 620,830 800,790 1000,830 1200,790 1400,830 1400,1430 100,1430" fill="#d9846a" /><rect x="100" y="900" width="1300" height="530" fill="#e8c28a" /><polygon points="100,760 280,700 360,760 520,690 620,780 570,900 660,1000 480,1300 100,1430" fill="#c95b3c" /><polygon points="1400,780 1200,720 1080,800 940,740 840,860 920,990 860,1120 980,1300 1400,1430" fill="#b4452f" /><polygon points="100,980 220,940 400,1020 450,1140 580,1200 400,1430 100,1430" fill="#8a2f2a" /><polygon points="1400,1010 1240,960 1070,1080 1100,1220 1200,1300 1300,1430 1400,1430" fill="#7a2523" /><path d="M 630 1060 C 550 1200, 900 1250, 710 1440 L 1010 1440 C 1050 1250, 790 1200, 880 1060 Z" fill="#2f8f8a"/><path d="M 690 1120 C 620 1220, 870 1260, 790 1440" stroke="#7fd1c9" stroke-width="10" fill="none"/><polygon points="100,1250 320,1180 520,1240 620,1430 100,1430" fill="#3b1d2e" /><rect x="350" y="850" width="22" height="400" fill="#241018" /><rect x="300" y="890" width="122" height="16" fill="#241018" /><rect x="310" y="930" width="102" height="16" fill="#241018" /><path d="M 300 900 Q 750 1020 1420 880" stroke="#241018" stroke-width="7" fill="none"/><path d="M 300 940 Q 750 1060 1420 920" stroke="#241018" stroke-width="7" fill="none"/></g>
  <rect x="100" y="100" width="1300" height="1330" fill="none" stroke="#3b1d2e" stroke-width="18"/>
  <line x1="100" y1="1462" x2="1400" y2="1462" stroke="#c94a3a" stroke-width="10"/>
  <text x="750" y="1609.5" font-family="Alfa Slab One" font-size="150" font-weight="400" fill="#3b1d2e" text-anchor="middle" letter-spacing="2">DIAL-UP</text><text x="750" y="1756.5" font-family="Alfa Slab One" font-size="150" font-weight="400" fill="#3b1d2e" text-anchor="middle" letter-spacing="2">CANYON</text>
  <text x="750" y="1844.5" font-family="Barlow Condensed" font-size="62" font-weight="600" fill="#3b1d2e" text-anchor="middle" letter-spacing="6">CONNECTING AT 56 KBPS OF NATURAL WONDER</text>
  <text x="750" y="1918.5" font-family="Barlow Condensed" font-size="44" font-weight="500" fill="#c94a3a" text-anchor="middle" letter-spacing="7">DEPRECATED PARKS SERVICE  ·  EST. 1996</text>
</svg>